<?xml version="1.0" standalone="no"?>
<!DOCTYPE svg PUBLIC "-//W3C//DTD SVG 1.1//EN"
  "http://www.w3.org/Graphics/SVG/1.1/DTD/svg11.dtd">
<svg width="52mm" height="51.999999999999986mm" viewBox="58 -124.63600158691403 52 51.999999999999986" xmlns="http://www.w3.org/2000/svg" version="1.1">
	<title>svgOutput</title>
	<desc>made with tinkercad</desc>
<path d="M 108.87999725341797 -101.08599853515622 L 109 -98.63600158691403 L 108.9837417602539 -98.30400085449216 L 108.87999725341797 -96.18499755859372 L 108.5199966430664 -93.75900268554686 L 107.92400360107422 -91.37899780273436 L 107.09700012207031 -89.06900024414061 L 106.0479965209961 -86.85099792480467 L 104.78700256347656 -84.7470016479492 L 103.32499694824219 -82.77600097656249 L 101.6780014038086 -80.95800018310545 L 99.86000061035156 -79.31099700927733 L 98.30400085449219 -78.15682983398436 L 97.88899993896484 -77.84899902343749 L 95.78500366210938 -76.58799743652342 L 93.56700134277344 -75.53900146484374 L 91.25700378417969 -74.71199798583983 L 89.99800109863281 -74.39672088623045 L 88.87699890136719 -74.11599731445311 L 86.44999694824219 -73.75599670410155 L 84 -73.63600158691405 L 81.55000305175781 -73.75599670410155 L 79.12300109863281 -74.11599731445311 L 78.99800109863281 -74.14730072021483 L 76.74299621582031 -74.71199798583983 L 74.43299865722656 -75.53900146484374 L 72.99800109863281 -76.21768188476561 L 72.21499633789062 -76.58799743652342 L 70.11100006103516 -77.84899902343749 L 68.13999938964844 -79.31099700927733 L 66.3219985961914 -80.95800018310545 L 65.53600311279297 -81.82560729980467 L 64.67500305175781 -82.77600097656249 L 63.2130012512207 -84.7470016479492 L 61.95199966430664 -86.85099792480467 L 60.90299987792969 -89.06900024414061 L 60.07600021362305 -91.37899780273436 L 59.47999954223633 -93.75900268554686 L 59.119998931884766 -96.18499755859372 L 59.01625442504883 -98.30400085449216 L 59 -98.63600158691403 L 59.119998931884766 -101.08599853515622 L 59.47999954223633 -103.51300048828122 L 60.07600021362305 -105.89299774169919 L 60.90299987792969 -108.20300292968747 L 61.95199966430664 -110.42099761962888 L 63.2130012512207 -112.52500152587888 L 64.67500305175781 -114.4960021972656 L 65.53600311279297 -115.44639587402341 L 66.3219985961914 -116.31400299072263 L 68.13999938964844 -117.96099853515622 L 70.11100006103516 -119.42299652099607 L 72.21499633789062 -120.68399810791013 L 72.99800109863281 -121.05432128906247 L 74.43299865722656 -121.73300170898435 L 76.74299621582031 -122.55899810791013 L 77.50299835205078 -122.74932098388669 L 78.99800109863281 -123.12369537353513 L 79.12300109863281 -123.15499877929685 L 81.55000305175781 -123.51499938964841 L 84 -123.63600158691403 L 86.44999694824219 -123.51499938964841 L 88.00299835205078 -123.28464508056638 L 88.87699890136719 -123.15499877929685 L 89.99800109863281 -122.8742752075195 L 91.25700378417969 -122.55899810791013 L 93.56700134277344 -121.73300170898435 L 94.50299835205078 -121.29032135009763 L 95.78500366210938 -120.68399810791013 L 97.88899993896484 -119.42299652099607 L 98.30400085449219 -119.11517333984372 L 99.86000061035156 -117.96099853515622 L 101.6780014038086 -116.31400299072263 L 103.32499694824219 -114.4960021972656 L 104.78700256347656 -112.52500152587888 L 106.0479965209961 -110.42099761962888 L 107.09700012207031 -108.20300292968747 L 107.92400360107422 -105.89299774169919 L 108.5199966430664 -103.51300048828122 L 108.87999725341797 -101.08599853515622 M 90.001708984375 -98.30400085449216 L 90.00800323486328 -98.16500091552732 L 90.04100036621094 -97.94599914550778 L 90.09400177001953 -97.73200225830075 L 90.11199951171875 -97.68208312988278 L 90.16899871826172 -97.52400207519528 L 90.26300048828125 -97.32399749755857 L 90.37699890136719 -97.13400268554685 L 90.50900268554688 -96.95700073242185 L 90.65699768066406 -96.7929992675781 L 90.82099914550781 -96.64499664306638 L 90.9990005493164 -96.51300048828122 L 91.18800354003906 -96.39900207519528 L 91.38800048828125 -96.30500030517575 L 91.59600067138672 -96.23000335693357 L 91.81099700927734 -96.17700195312497 L 92.02899932861328 -96.14399719238278 L 92.16000366210938 -96.1374816894531 L 92.25 -96.13300323486325 L 92.47100067138672 -96.14399719238278 L 92.68900299072266 -96.17700195312497 L 92.90399932861328 -96.23000335693357 L 93.11199951171875 -96.30500030517575 L 93.31199645996094 -96.39900207519528 L 93.5009994506836 -96.51300048828122 L 93.67900085449219 -96.64499664306638 L 93.84300231933594 -96.7929992675781 L 93.99099731445312 -96.95700073242185 L 94.12300109863281 -97.13400268554685 L 94.20800018310547 -97.2756652832031 L 94.23699951171875 -97.32399749755857 L 94.33100128173828 -97.52400207519528 L 94.40599822998047 -97.73200225830075 L 94.45899963378906 -97.94599914550778 L 94.49199676513672 -98.16500091552732 L 94.49891662597656 -98.30400085449216 L 94.50299835205078 -98.38600158691403 L 94.49199676513672 -98.60700225830075 L 94.45899963378906 -98.82499694824216 L 94.40599822998047 -99.04000091552732 L 94.33100128173828 -99.24800109863278 L 94.23699951171875 -99.44799804687497 L 94.20800018310547 -99.49607849121091 L 94.12300109863281 -99.63700103759763 L 93.99099731445312 -99.81500244140622 L 93.84300231933594 -99.97899627685544 L 93.67900085449219 -100.12699890136716 L 93.5009994506836 -100.25900268554685 L 93.31199645996094 -100.37200164794919 L 93.11199951171875 -100.46700286865232 L 92.90399932861328 -100.54100036621091 L 92.68900299072266 -100.5950012207031 L 92.47100067138672 -100.62699890136716 L 92.25 -100.63800048828122 L 92.16000366210938 -100.63352203369138 L 92.02899932861328 -100.62699890136716 L 91.81099700927734 -100.5950012207031 L 91.59600067138672 -100.54100036621091 L 91.38800048828125 -100.46700286865232 L 91.18800354003906 -100.37200164794919 L 90.9990005493164 -100.25900268554685 L 90.82099914550781 -100.12699890136716 L 90.65699768066406 -99.97899627685544 L 90.50900268554688 -99.81500244140622 L 90.37699890136719 -99.63700103759763 L 90.26300048828125 -99.44799804687497 L 90.16899871826172 -99.24800109863278 L 90.11199951171875 -99.08992004394528 L 90.09400177001953 -99.04000091552732 L 90.04100036621094 -98.82499694824216 L 90.00800323486328 -98.60700225830075 L 89.99800109863281 -98.38600158691403 L 90.001708984375 -98.30400085449216 M 73.00800323486328 -98.60700225830075 L 72.99800109863281 -98.38600158691403 L 73.001708984375 -98.30400085449216 L 73.00800323486328 -98.16500091552732 L 73.04100036621094 -97.94599914550778 L 73.09400177001953 -97.73200225830075 L 73.16899871826172 -97.52400207519528 L 73.26300048828125 -97.32399749755857 L 73.37699890136719 -97.13400268554685 L 73.50900268554688 -96.95700073242185 L 73.65699768066406 -96.7929992675781 L 73.72799682617188 -96.72892761230466 L 73.82099914550781 -96.64499664306638 L 73.9990005493164 -96.51300048828122 L 74.18800354003906 -96.39900207519528 L 74.38800048828125 -96.30500030517575 L 74.59600067138672 -96.23000335693357 L 74.81099700927734 -96.17700195312497 L 75.02899932861328 -96.14399719238278 L 75.25 -96.13300323486325 L 75.47100067138672 -96.14399719238278 L 75.68900299072266 -96.17700195312497 L 75.7760009765625 -96.19844818115232 L 75.90399932861328 -96.23000335693357 L 76.11199951171875 -96.30500030517575 L 76.31199645996094 -96.39900207519528 L 76.5009994506836 -96.51300048828122 L 76.67900085449219 -96.64499664306638 L 76.84300231933594 -96.7929992675781 L 76.99099731445312 -96.95700073242185 L 77.12300109863281 -97.13400268554685 L 77.23699951171875 -97.32399749755857 L 77.33100128173828 -97.52400207519528 L 77.40599822998047 -97.73200225830075 L 77.45899963378906 -97.94599914550778 L 77.49199676513672 -98.16500091552732 L 77.49891662597656 -98.30400085449216 L 77.50299835205078 -98.38600158691403 L 77.49199676513672 -98.60700225830075 L 77.45899963378906 -98.82499694824216 L 77.40599822998047 -99.04000091552732 L 77.33100128173828 -99.24800109863278 L 77.23699951171875 -99.44799804687497 L 77.12300109863281 -99.63700103759763 L 76.99099731445312 -99.81500244140622 L 76.84300231933594 -99.97899627685544 L 76.67900085449219 -100.12699890136716 L 76.5009994506836 -100.25900268554685 L 76.34545135498047 -100.35199737548825 L 76.31199645996094 -100.37200164794919 L 76.11199951171875 -100.46700286865232 L 75.90399932861328 -100.54100036621091 L 75.7760009765625 -100.5731506347656 L 75.68900299072266 -100.5950012207031 L 75.47100067138672 -100.62699890136716 L 75.25 -100.63800048828122 L 75.02899932861328 -100.62699890136716 L 74.81099700927734 -100.5950012207031 L 74.59600067138672 -100.54100036621091 L 74.38800048828125 -100.46700286865232 L 74.18800354003906 -100.37200164794919 L 73.9990005493164 -100.25900268554685 L 73.82099914550781 -100.12699890136716 L 73.72799682617188 -100.04307556152341 L 73.65699768066406 -99.97899627685544 L 73.50900268554688 -99.81500244140622 L 73.37699890136719 -99.63700103759763 L 73.26300048828125 -99.44799804687497 L 73.16899871826172 -99.24800109863278 L 73.09400177001953 -99.04000091552732 L 73.04100036621094 -98.82499694824216 L 73.00800323486328 -98.60700225830075 M 79.01899719238281 -98.57700347900388 L 79.00599670410156 -98.30400085449216 L 78.99800109863281 -98.13600158691403 L 79.01899719238281 -97.69499969482419 L 79.08399963378906 -97.25700378417966 L 79.19100189208984 -96.82900238037107 L 79.33999633789062 -96.41300201416013 L 79.47229766845703 -96.13300323486325 L 79.52899932861328 -96.01300048828122 L 79.75599670410156 -95.63400268554686 L 80.0199966430664 -95.27899932861327 L 80.31600189208984 -94.95200347900389 L 80.64399719238281 -94.65499877929686 L 80.9990005493164 -94.39199829101561 L 81.37799835205078 -94.16500091552733 L 81.7770004272461 -93.97599792480467 L 81.91999816894531 -93.92478179931639 L 82.19300079345703 -93.82700347900389 L 82.62200164794922 -93.72000122070311 L 83.05899810791016 -93.65499877929686 L 83.5 -93.63300323486327 L 83.94100189208984 -93.65499877929686 L 84.37799835205078 -93.72000122070311 L 84.80699920654297 -93.82700347900389 L 85.2229995727539 -93.97599792480467 L 85.62200164794922 -94.16500091552733 L 86.0009994506836 -94.39199829101561 L 86.01599884033203 -94.40311431884764 L 86.35600280761719 -94.65499877929686 L 86.68399810791016 -94.95200347900389 L 86.9800033569336 -95.27899932861327 L 87.24400329589844 -95.63400268554686 L 87.47100067138672 -96.01300048828122 L 87.52770233154297 -96.13300323486325 L 87.66000366210938 -96.41300201416013 L 87.80899810791016 -96.82900238037107 L 87.91600036621094 -97.25700378417966 L 87.98100280761719 -97.69499969482419 L 88.00299835205078 -98.13600158691403 L 87.99462127685547 -98.30400085449216 L 87.98100280761719 -98.57700347900388 L 87.91600036621094 -99.01399993896482 L 87.80899810791016 -99.443000793457 L 87.66000366210938 -99.85900115966794 L 87.47100067138672 -100.25800323486325 L 87.24400329589844 -100.63700103759763 L 86.9800033569336 -100.99199676513669 L 86.68399810791016 -101.31999969482419 L 86.35600280761719 -101.6159973144531 L 86.01599884033203 -101.86884307861325 L 86.0009994506836 -101.87999725341794 L 85.62200164794922 -102.10700225830075 L 85.2229995727539 -102.29599761962888 L 84.80699920654297 -102.4440002441406 L 84.37799835205078 -102.55200195312497 L 83.94100189208984 -102.61699676513669 L 83.5 -102.63800048828122 L 83.05899810791016 -102.61699676513669 L 82.62200164794922 -102.55200195312497 L 82.19300079345703 -102.4440002441406 L 81.91999816894531 -102.34687805175778 L 81.7770004272461 -102.29599761962888 L 81.37799835205078 -102.10700225830075 L 80.9990005493164 -101.87999725341794 L 80.64399719238281 -101.6159973144531 L 80.31600189208984 -101.31999969482419 L 80.0199966430664 -100.99199676513669 L 79.75599670410156 -100.63700103759763 L 79.52899932861328 -100.25800323486325 L 79.33999633789062 -99.85900115966794 L 79.19100189208984 -99.443000793457 L 79.08399963378906 -99.01399993896482 L 79.01899719238281 -98.57700347900388 z" fill="none" stroke="rgb(255,0,0)" stroke-width="0.001mm" />
</svg>