<?xml version="1.0" standalone="no"?>
<!DOCTYPE svg PUBLIC "-//W3C//DTD SVG 1.1//EN"
  "http://www.w3.org/Graphics/SVG/1.1/DTD/svg11.dtd">
<svg width="72mm" height="72mm" viewBox="121 -174.63600158691403 72 72" xmlns="http://www.w3.org/2000/svg" version="1.1">
	<title>svgOutput</title>
	<desc>made with tinkercad</desc>
<path d="M 179.20399475097656 -165.69099426269528 L 181.24595642089844 -163.8399963378906 L 181.74899291992188 -163.38400268554685 L 184.05499267578125 -160.83900451660153 L 186.1009979248047 -158.08099365234372 L 187.86700439453125 -155.1349945068359 L 189.33599853515625 -152.02999877929685 L 190.4929962158203 -148.7960052490234 L 191.32699584960938 -145.46400451660153 L 191.83099365234375 -142.06599426269528 L 192 -138.63600158691403 L 191.95069885253906 -137.6349945068359 L 191.83099365234375 -135.20500183105466 L 191.6719970703125 -134.13299560546872 L 191.32699584960938 -131.80700683593747 L 191.14297485351562 -131.0720062255859 L 190.4929962158203 -128.47599792480466 L 189.33599853515625 -125.24199676513669 L 187.86700439453125 -122.13700103759763 L 186.1009979248047 -119.19100189208982 L 184.05499267578125 -116.43199920654294 L 181.74899291992188 -113.88700103759763 L 179.20399475097656 -111.58000183105466 L 176.44500732421875 -109.53399658203122 L 173.49899291992188 -107.76799774169919 L 170.3939971923828 -106.30000305175778 L 167.16000366210938 -105.14299774169919 L 163.83999633789062 -104.31100463867185 L 163.8280029296875 -104.30799865722653 L 160.43099975585938 -103.80400085449216 L 157 -103.63600158691403 L 153.56900024414062 -103.80400085449216 L 150.1719970703125 -104.30799865722653 L 146.83999633789062 -105.14299774169919 L 143.6060028076172 -106.30000305175778 L 140.50100708007812 -107.76799774169919 L 137.55499267578125 -109.53399658203122 L 134.79600524902344 -111.58000183105466 L 132.25100708007812 -113.88700103759763 L 131.07200622558594 -115.18819427490232 L 129.94500732421875 -116.43199920654294 L 127.89900207519531 -119.19100189208982 L 126.13300323486328 -122.13700103759763 L 124.66400146484375 -125.24199676513669 L 123.50700378417969 -128.47599792480466 L 122.85702514648438 -131.0720062255859 L 122.6729965209961 -131.80700683593747 L 122.16899871826172 -135.20500183105466 L 122 -138.63600158691403 L 122.16899871826172 -142.06599426269528 L 122.6729965209961 -145.46400451660153 L 123.50700378417969 -148.7960052490234 L 124.66400146484375 -152.02999877929685 L 126.13300323486328 -155.1349945068359 L 127.89900207519531 -158.08099365234372 L 129.94500732421875 -160.83900451660153 L 131.07200622558594 -162.08280944824216 L 132.25100708007812 -163.38400268554685 L 134.79600524902344 -165.69099426269528 L 137.55499267578125 -167.73699951171872 L 140.50100708007812 -169.50300598144528 L 143.6060028076172 -170.97099304199216 L 146.4980010986328 -172.00654602050778 L 146.83999633789062 -172.12899780273435 L 150.1719970703125 -172.9629974365234 L 150.4980010986328 -173.01136779785153 L 152.49899291992188 -173.30824279785153 L 153.56900024414062 -173.46699523925778 L 157 -173.63600158691403 L 160.43099975585938 -173.46699523925778 L 161.50100708007812 -173.30824279785153 L 163.5019989013672 -173.01136779785153 L 163.8280029296875 -172.9629974365234 L 163.83999633789062 -172.9599914550781 L 167.16000366210938 -172.12899780273435 L 170.3939971923828 -170.97099304199216 L 173.49899291992188 -169.50300598144528 L 176.44500732421875 -167.73699951171872 L 179.20399475097656 -165.69099426269528 M 165.30599975585938 -137.64399719238278 L 165.5019989013672 -137.6349945068359 L 165.697998046875 -137.64399719238278 L 165.88800048828125 -137.67240905761716 L 165.89199829101562 -137.6730041503906 L 166.08299255371094 -137.72099304199216 L 166.26800537109375 -137.78700256347653 L 166.44500732421875 -137.8710021972656 L 166.61300659179688 -137.97200012207028 L 166.77099609375 -138.08900451660153 L 166.91700744628906 -138.22099304199216 L 167.04800415039062 -138.3659973144531 L 167.1649932861328 -138.52400207519528 L 167.26600646972656 -138.69299316406247 L 167.35000610351562 -138.86999511718747 L 167.41600036621094 -139.05499267578122 L 167.46400451660156 -139.24499511718747 L 167.46682739257812 -139.26400756835935 L 167.4929962158203 -139.44000244140622 L 167.5030059814453 -139.63600158691403 L 167.4929962158203 -139.83200073242185 L 167.46400451660156 -140.02600097656247 L 167.41600036621094 -140.21699523925778 L 167.35000610351562 -140.40199279785153 L 167.26600646972656 -140.57899475097653 L 167.1649932861328 -140.74800109863278 L 167.04800415039062 -140.90499877929685 L 166.91700744628906 -141.05099487304685 L 166.77099609375 -141.18299865722653 L 166.61300659179688 -141.30000305175778 L 166.59303283691406 -141.3119964599609 L 166.44500732421875 -141.40100097656247 L 166.26800537109375 -141.48500061035153 L 166.08299255371094 -141.55099487304685 L 165.89199829101562 -141.5980072021484 L 165.88800048828125 -141.59860229492185 L 165.697998046875 -141.62699890136716 L 165.5019989013672 -141.6369934082031 L 165.30599975585938 -141.62699890136716 L 165.11199951171875 -141.5980072021484 L 164.92100524902344 -141.55099487304685 L 164.73599243164062 -141.48500061035153 L 164.5590057373047 -141.40100097656247 L 164.39100646972656 -141.30000305175778 L 164.23300170898438 -141.18299865722653 L 164.08700561523438 -141.05099487304685 L 163.95599365234375 -140.90499877929685 L 163.83999633789062 -140.74934387207028 L 163.83900451660156 -140.74800109863278 L 163.73800659179688 -140.57899475097653 L 163.6540069580078 -140.40199279785153 L 163.58799743652344 -140.21699523925778 L 163.5399932861328 -140.02600097656247 L 163.51100158691406 -139.83200073242185 L 163.5019989013672 -139.63600158691403 L 163.51100158691406 -139.44000244140622 L 163.53717041015625 -139.26400756835935 L 163.5399932861328 -139.24499511718747 L 163.58799743652344 -139.05499267578122 L 163.6540069580078 -138.86999511718747 L 163.73800659179688 -138.69299316406247 L 163.83900451660156 -138.52400207519528 L 163.83999633789062 -138.52264404296872 L 163.95599365234375 -138.3659973144531 L 164.08700561523438 -138.22099304199216 L 164.23300170898438 -138.08900451660153 L 164.39100646972656 -137.97200012207028 L 164.5590057373047 -137.8710021972656 L 164.73599243164062 -137.78700256347653 L 164.92100524902344 -137.72099304199216 L 165.11199951171875 -137.6730041503906 L 165.30599975585938 -137.64399719238278 M 155.2779998779297 -134.47599792480466 L 155.6479949951172 -134.34315490722653 L 155.6929931640625 -134.32699584960935 L 156.1219940185547 -134.21899414062497 L 156.5590057373047 -134.15499877929685 L 157 -134.13299560546872 L 157.4409942626953 -134.15499877929685 L 157.8780059814453 -134.21899414062497 L 158.3070068359375 -134.32699584960935 L 158.7220001220703 -134.47599792480466 L 159.1219940185547 -134.66400146484372 L 159.50100708007812 -134.8919982910156 L 159.74400329589844 -135.0725402832031 L 159.85499572753906 -135.15499877929685 L 160.18299865722656 -135.45199584960935 L 160.47900390625 -135.77900695800778 L 160.7429962158203 -136.13400268554685 L 160.97000122070312 -136.51300048828122 L 161.1580047607422 -136.91200256347653 L 161.3070068359375 -137.32800292968747 L 161.4149932861328 -137.75700378417966 L 161.47900390625 -138.1940002441406 L 161.50100708007812 -138.6349945068359 L 161.47900390625 -139.07699584960935 L 161.4516143798828 -139.26400756835935 L 161.4149932861328 -139.51400756835935 L 161.3070068359375 -139.9420013427734 L 161.1580047607422 -140.35800170898435 L 160.97000122070312 -140.75799560546872 L 160.7429962158203 -141.1369934082031 L 160.47900390625 -141.49200439453122 L 160.18299865722656 -141.8190002441406 L 159.85499572753906 -142.1159973144531 L 159.74400329589844 -142.1984710693359 L 159.50100708007812 -142.37899780273435 L 159.1219940185547 -142.60600280761716 L 158.7220001220703 -142.79499816894528 L 158.3070068359375 -142.9440002441406 L 157.8780059814453 -143.05099487304685 L 157.4409942626953 -143.1159973144531 L 157 -143.13800048828122 L 156.5590057373047 -143.1159973144531 L 156.1219940185547 -143.05099487304685 L 155.6929931640625 -142.9440002441406 L 155.6479949951172 -142.9278411865234 L 155.2779998779297 -142.79499816894528 L 154.8780059814453 -142.60600280761716 L 154.49899291992188 -142.37899780273435 L 154.14500427246094 -142.1159973144531 L 153.81700134277344 -141.8190002441406 L 153.52099609375 -141.49200439453122 L 153.2570037841797 -141.1369934082031 L 153.02999877929688 -140.75799560546872 L 152.8419952392578 -140.35800170898435 L 152.6929931640625 -139.9420013427734 L 152.5850067138672 -139.51400756835935 L 152.5483856201172 -139.26400756835935 L 152.52099609375 -139.07699584960935 L 152.49899291992188 -138.6349945068359 L 152.52099609375 -138.1940002441406 L 152.5850067138672 -137.75700378417966 L 152.6929931640625 -137.32800292968747 L 152.8419952392578 -136.91200256347653 L 153.02999877929688 -136.51300048828122 L 153.2570037841797 -136.13400268554685 L 153.52099609375 -135.77900695800778 L 153.81700134277344 -135.45199584960935 L 154.14500427246094 -135.15499877929685 L 154.49899291992188 -134.8919982910156 L 154.8780059814453 -134.66400146484372 L 155.2779998779297 -134.47599792480466 M 147.38699340820312 -137.97200012207028 L 147.45599365234375 -137.93051147460935 L 147.55499267578125 -137.8710021972656 L 147.73199462890625 -137.78700256347653 L 147.91700744628906 -137.72099304199216 L 148.10800170898438 -137.6730041503906 L 148.302001953125 -137.64399719238278 L 148.4980010986328 -137.6349945068359 L 148.69400024414062 -137.64399719238278 L 148.88800048828125 -137.6730041503906 L 149.07899475097656 -137.72099304199216 L 149.26400756835938 -137.78700256347653 L 149.4409942626953 -137.8710021972656 L 149.50399780273438 -137.90887451171872 L 149.60899353027344 -137.97200012207028 L 149.76699829101562 -138.08900451660153 L 149.91299438476562 -138.22099304199216 L 150.04400634765625 -138.3659973144531 L 150.16099548339844 -138.52400207519528 L 150.26199340820312 -138.69299316406247 L 150.3459930419922 -138.86999511718747 L 150.41200256347656 -139.05499267578122 L 150.4600067138672 -139.24499511718747 L 150.46282958984375 -139.26400756835935 L 150.48899841308594 -139.44000244140622 L 150.4980010986328 -139.63600158691403 L 150.48899841308594 -139.83200073242185 L 150.4600067138672 -140.02600097656247 L 150.41200256347656 -140.21699523925778 L 150.3459930419922 -140.40199279785153 L 150.26199340820312 -140.57899475097653 L 150.16099548339844 -140.74800109863278 L 150.04400634765625 -140.90499877929685 L 149.91299438476562 -141.05099487304685 L 149.76699829101562 -141.18299865722653 L 149.60899353027344 -141.30000305175778 L 149.50399780273438 -141.36312866210935 L 149.4409942626953 -141.40100097656247 L 149.26400756835938 -141.48500061035153 L 149.07899475097656 -141.55099487304685 L 148.88800048828125 -141.5980072021484 L 148.69400024414062 -141.62699890136716 L 148.4980010986328 -141.6369934082031 L 148.302001953125 -141.62699890136716 L 148.10800170898438 -141.5980072021484 L 147.91700744628906 -141.55099487304685 L 147.73199462890625 -141.48500061035153 L 147.55499267578125 -141.40100097656247 L 147.45599365234375 -141.34147644042966 L 147.38699340820312 -141.30000305175778 L 147.22900390625 -141.18299865722653 L 147.08299255371094 -141.05099487304685 L 146.95199584960938 -140.90499877929685 L 146.8350067138672 -140.74800109863278 L 146.73399353027344 -140.57899475097653 L 146.64999389648438 -140.40199279785153 L 146.58399963378906 -140.21699523925778 L 146.53599548339844 -140.02600097656247 L 146.5070037841797 -139.83200073242185 L 146.4980010986328 -139.63600158691403 L 146.5070037841797 -139.44000244140622 L 146.53317260742188 -139.26400756835935 L 146.53599548339844 -139.24499511718747 L 146.58399963378906 -139.05499267578122 L 146.64999389648438 -138.86999511718747 L 146.73399353027344 -138.69299316406247 L 146.8350067138672 -138.52400207519528 L 146.95199584960938 -138.3659973144531 L 147.08299255371094 -138.22099304199216 L 147.22900390625 -138.08900451660153 L 147.38699340820312 -137.97200012207028 z" fill="none" stroke="rgb(255,0,0)" stroke-width="0.001mm" />
</svg>